<svg xmlns="http://www.w3.org/2000/svg" xmlns:xlink="http://www.w3.org/1999/xlink" version="1.1" x="0px" y="0px" viewBox="0 0 50 62.5" enable-background="new 0 0 50 50" xml:space="preserve"><path d="M45.861,13.296c-0.947-1.685-3.08-2.284-4.767-1.335c-1.685,0.947-2.282,3.081-1.335,4.766  c1.411,2.51,2.157,5.371,2.157,8.273c0,9.328-7.589,16.917-16.917,16.917S8.083,34.328,8.083,25S15.672,8.083,25,8.083  c2.053,0,4.058,0.363,5.96,1.079c1.812,0.681,3.828-0.235,4.508-2.043c0.681-1.809-0.233-3.828-2.043-4.508  C30.732,1.597,27.897,1.083,25,1.083C11.812,1.083,1.083,11.812,1.083,25c0,13.188,10.729,23.917,23.917,23.917  c13.188,0,23.917-10.729,23.917-23.917C48.917,20.898,47.86,16.851,45.861,13.296z"/><text x="0" y="65" fill="#000000" font-size="5px" font-weight="bold" font-family="'Helvetica Neue', Helvetica, Arial-Unicode, Arial, Sans-serif">Created by Alex Burte</text><text x="0" y="70" fill="#000000" font-size="5px" font-weight="bold" font-family="'Helvetica Neue', Helvetica, Arial-Unicode, Arial, Sans-serif">from the Noun Project</text></svg>