<svg width="38" height="38" viewBox="0 0 38 38" fill="none" xmlns="http://www.w3.org/2000/svg">
<path d="M15.65 3.634C16.502 0.122 21.498 0.122 22.35 3.634C22.4778 4.1616 22.7284 4.65156 23.0814 5.064C23.4344 5.47644 23.8798 5.79971 24.3813 6.00749C24.8828 6.21528 25.4263 6.3017 25.9676 6.25974C26.5088 6.21777 27.0325 6.0486 27.496 5.766C30.582 3.886 34.116 7.418 32.236 10.506C31.9538 10.9693 31.7849 11.4927 31.743 12.0335C31.7012 12.5744 31.7875 13.1175 31.9951 13.6188C32.2026 14.12 32.5255 14.5652 32.9375 14.9181C33.3494 15.2711 33.8389 15.5218 34.366 15.65C37.878 16.502 37.878 21.498 34.366 22.35C33.8384 22.4778 33.3484 22.7284 32.936 23.0814C32.5236 23.4344 32.2003 23.8798 31.9925 24.3813C31.7847 24.8828 31.6983 25.4263 31.7403 25.9676C31.7822 26.5088 31.9514 27.0325 32.234 27.496C34.114 30.582 30.582 34.116 27.494 32.236C27.0307 31.9538 26.5073 31.7849 25.9665 31.743C25.4256 31.7012 24.8825 31.7875 24.3812 31.9951C23.88 32.2026 23.4348 32.5255 23.0819 32.9375C22.7289 33.3494 22.4782 33.8389 22.35 34.366C21.498 37.878 16.502 37.878 15.65 34.366C15.5222 33.8384 15.2716 33.3484 14.9186 32.936C14.5656 32.5236 14.1202 32.2003 13.6187 31.9925C13.1172 31.7847 12.5737 31.6983 12.0324 31.7403C11.4912 31.7822 10.9675 31.9514 10.504 32.234C7.418 34.114 3.884 30.582 5.764 27.494C6.0462 27.0307 6.2151 26.5073 6.25697 25.9665C6.29883 25.4256 6.21249 24.8825 6.00494 24.3812C5.7974 23.88 5.47452 23.4348 5.06255 23.0819C4.65057 22.7289 4.16113 22.4782 3.634 22.35C0.122 21.498 0.122 16.502 3.634 15.65C4.1616 15.5222 4.65156 15.2716 5.064 14.9186C5.47644 14.5656 5.79971 14.1202 6.00749 13.6187C6.21528 13.1172 6.3017 12.5737 6.25974 12.0324C6.21777 11.4912 6.0486 10.9675 5.766 10.504C3.886 7.418 7.418 3.884 10.506 5.764C12.498 6.98 15.098 5.904 15.65 3.634Z" stroke="black" stroke-width="2" stroke-linecap="round" stroke-linejoin="round"/>
<path d="M25 19C25 20.5913 24.3679 22.1174 23.2426 23.2426C22.1174 24.3679 20.5913 25 19 25C17.4087 25 15.8826 24.3679 14.7574 23.2426C13.6321 22.1174 13 20.5913 13 19C13 17.4087 13.6321 15.8826 14.7574 14.7574C15.8826 13.6321 17.4087 13 19 13C20.5913 13 22.1174 13.6321 23.2426 14.7574C24.3679 15.8826 25 17.4087 25 19V19Z" stroke="black" stroke-width="2" stroke-linecap="round" stroke-linejoin="round"/>
</svg>
