<svg viewBox="0 0 18 10" fill="none" xmlns="http://www.w3.org/2000/svg">
<path d="M1.568 0.599999H3.812C4.364 0.599999 4.848 0.704 5.264 0.912C5.688 1.12 6.02 1.4 6.26 1.752C6.5 2.096 6.676 2.476 6.788 2.892C6.908 3.3 6.968 3.732 6.968 4.188C6.968 4.628 6.924 5.064 6.836 5.496C6.748 5.92 6.592 6.348 6.368 6.78C6.144 7.212 5.864 7.588 5.528 7.908C5.2 8.228 4.768 8.492 4.232 8.7C3.704 8.9 3.108 9 2.444 9H0.0920001L1.568 0.599999ZM2.576 8.052C3.056 8.052 3.488 7.972 3.872 7.812C4.264 7.644 4.58 7.432 4.82 7.176C5.068 6.912 5.276 6.608 5.444 6.264C5.612 5.92 5.728 5.58 5.792 5.244C5.864 4.9 5.9 4.552 5.9 4.2C5.9 3.464 5.724 2.84 5.372 2.328C5.02 1.808 4.492 1.548 3.788 1.548H2.432L1.292 8.052H2.576ZM7.70572 9L8.81272 2.7H11.1077C11.6837 2.7 12.1097 2.859 12.3857 3.177C12.6617 3.489 12.7997 3.861 12.7997 4.293C12.7997 4.881 12.6077 5.388 12.2237 5.814C11.8457 6.24 11.2907 6.453 10.5587 6.453H8.93872L8.48872 9H7.70572ZM10.6487 5.769C11.1107 5.769 11.4557 5.625 11.6837 5.337C11.9177 5.049 12.0347 4.722 12.0347 4.356C12.0347 4.098 11.9597 3.873 11.8097 3.681C11.6597 3.483 11.4107 3.384 11.0627 3.384H9.46972L9.05572 5.769H10.6487Z" fill="#3D6D8B"/>
<path d="M12.463 6.771H13.018V9H12.463V6.771ZM14.1425 8.052C14.1425 8 14.1405 7.963 14.1365 7.941C14.1325 7.919 14.1205 7.903 14.1005 7.893C14.0825 7.883 14.0485 7.876 13.9985 7.872C13.9685 7.87 13.9035 7.869 13.8035 7.869C13.7075 7.869 13.6185 7.873 13.5365 7.881L13.3775 7.89V7.5C13.5655 7.464 13.7685 7.446 13.9865 7.446C14.1545 7.446 14.2855 7.458 14.3795 7.482C14.4755 7.506 14.5475 7.544 14.5955 7.596C14.6375 7.644 14.6645 7.705 14.6765 7.779C14.6905 7.853 14.6975 7.956 14.6975 8.088V9H14.1425V8.052ZM13.6985 9.021C13.5605 9.021 13.4585 8.983 13.3925 8.907C13.3265 8.829 13.2935 8.712 13.2935 8.556C13.2935 8.46 13.3005 8.383 13.3145 8.325C13.3285 8.265 13.3525 8.218 13.3865 8.184C13.4205 8.148 13.4675 8.123 13.5275 8.109C13.5875 8.093 13.6665 8.085 13.7645 8.085L14.0165 8.091V8.358H13.9865C13.9405 8.358 13.9105 8.359 13.8965 8.361C13.8565 8.363 13.8355 8.382 13.8335 8.418C13.8315 8.43 13.8305 8.455 13.8305 8.493C13.8305 8.523 13.8315 8.546 13.8335 8.562C13.8375 8.578 13.8435 8.591 13.8515 8.601C13.8615 8.615 13.8765 8.623 13.8965 8.625C13.9245 8.629 13.9545 8.631 13.9865 8.631H14.0165V8.937C13.9725 8.971 13.9255 8.993 13.8755 9.003C13.8275 9.015 13.7685 9.021 13.6985 9.021ZM15.0323 6.771H15.5873V9H15.0323V6.771ZM16.0193 9.021C15.9533 9.021 15.8953 9.015 15.8453 9.003C15.7973 8.991 15.7533 8.97 15.7133 8.94V8.559H15.7463C15.7903 8.559 15.8213 8.557 15.8393 8.553C15.8593 8.547 15.8743 8.535 15.8843 8.517C15.8943 8.495 15.9003 8.463 15.9023 8.421C15.9043 8.391 15.9053 8.329 15.9053 8.235C15.9053 8.141 15.9043 8.079 15.9023 8.049C15.9003 8.005 15.8943 7.973 15.8843 7.953C15.8763 7.933 15.8613 7.921 15.8393 7.917C15.8113 7.913 15.7803 7.911 15.7463 7.911H15.7133V7.53C15.7533 7.498 15.7963 7.477 15.8423 7.467C15.8883 7.455 15.9473 7.449 16.0193 7.449C16.1793 7.449 16.2943 7.507 16.3643 7.623C16.4343 7.743 16.4693 7.949 16.4693 8.241C16.4693 8.535 16.4343 8.74 16.3643 8.856C16.3283 8.914 16.2813 8.956 16.2233 8.982C16.1673 9.008 16.0993 9.021 16.0193 9.021ZM17.9007 7.887C17.8627 7.885 17.8107 7.88 17.7447 7.872C17.6207 7.86 17.5207 7.854 17.4447 7.854H17.3457V7.446C17.4877 7.446 17.6227 7.456 17.7507 7.476L17.9007 7.503V7.887ZM17.4657 8.535C17.4657 8.505 17.4607 8.486 17.4507 8.478C17.4407 8.47 17.4197 8.464 17.3877 8.46L17.0637 8.415C16.9837 8.403 16.9187 8.384 16.8687 8.358C16.8207 8.332 16.7847 8.297 16.7607 8.253C16.7367 8.215 16.7207 8.169 16.7127 8.115C16.7047 8.061 16.7007 7.994 16.7007 7.914C16.7007 7.75 16.7497 7.63 16.8477 7.554C16.9297 7.494 17.0537 7.459 17.2197 7.449V7.92C17.2197 7.95 17.2237 7.97 17.2317 7.98C17.2397 7.988 17.2647 7.995 17.3067 8.001L17.6667 8.049C17.7187 8.055 17.7637 8.066 17.8017 8.082C17.8397 8.096 17.8717 8.118 17.8977 8.148C17.9557 8.212 17.9847 8.335 17.9847 8.517C17.9847 8.709 17.9357 8.843 17.8377 8.919C17.7517 8.983 17.6277 9.017 17.4657 9.021V8.535ZM17.3397 9.024C17.1797 9.022 17.0397 9.012 16.9197 8.994L16.7487 8.967V8.583C16.8287 8.591 16.9367 8.599 17.0727 8.607C17.1487 8.611 17.2027 8.613 17.2347 8.613H17.3397V9.024Z" fill="#4A4B53"/>
</svg>
