<svg viewBox="0 0 24 15" fill="none" xmlns="http://www.w3.org/2000/svg">
<path d="M16.171 10.771H16.726V13H16.171V10.771ZM17.8505 12.052C17.8505 12 17.8485 11.963 17.8445 11.941C17.8405 11.919 17.8285 11.903 17.8085 11.893C17.7905 11.883 17.7565 11.876 17.7065 11.872C17.6765 11.87 17.6115 11.869 17.5115 11.869C17.4155 11.869 17.3265 11.873 17.2445 11.881L17.0855 11.89V11.5C17.2735 11.464 17.4765 11.446 17.6945 11.446C17.8625 11.446 17.9935 11.458 18.0875 11.482C18.1835 11.506 18.2555 11.544 18.3035 11.596C18.3455 11.644 18.3725 11.705 18.3845 11.779C18.3985 11.853 18.4055 11.956 18.4055 12.088V13H17.8505V12.052ZM17.4065 13.021C17.2685 13.021 17.1665 12.983 17.1005 12.907C17.0345 12.829 17.0015 12.712 17.0015 12.556C17.0015 12.46 17.0085 12.383 17.0225 12.325C17.0365 12.265 17.0605 12.218 17.0945 12.184C17.1285 12.148 17.1755 12.123 17.2355 12.109C17.2955 12.093 17.3745 12.085 17.4725 12.085L17.7245 12.091V12.358H17.6945C17.6485 12.358 17.6185 12.359 17.6045 12.361C17.5645 12.363 17.5435 12.382 17.5415 12.418C17.5395 12.43 17.5385 12.455 17.5385 12.493C17.5385 12.523 17.5395 12.546 17.5415 12.562C17.5455 12.578 17.5515 12.591 17.5595 12.601C17.5695 12.615 17.5845 12.623 17.6045 12.625C17.6325 12.629 17.6625 12.631 17.6945 12.631H17.7245V12.937C17.6805 12.971 17.6335 12.993 17.5835 13.003C17.5355 13.015 17.4765 13.021 17.4065 13.021ZM18.7403 10.771H19.2953V13H18.7403V10.771ZM19.7273 13.021C19.6613 13.021 19.6033 13.015 19.5533 13.003C19.5053 12.991 19.4613 12.97 19.4213 12.94V12.559H19.4543C19.4983 12.559 19.5293 12.557 19.5473 12.553C19.5673 12.547 19.5823 12.535 19.5923 12.517C19.6023 12.495 19.6083 12.463 19.6103 12.421C19.6123 12.391 19.6133 12.329 19.6133 12.235C19.6133 12.141 19.6123 12.079 19.6103 12.049C19.6083 12.005 19.6023 11.973 19.5923 11.953C19.5843 11.933 19.5693 11.921 19.5473 11.917C19.5193 11.913 19.4883 11.911 19.4543 11.911H19.4213V11.53C19.4613 11.498 19.5043 11.477 19.5503 11.467C19.5963 11.455 19.6553 11.449 19.7273 11.449C19.8873 11.449 20.0023 11.507 20.0723 11.623C20.1423 11.743 20.1773 11.949 20.1773 12.241C20.1773 12.535 20.1423 12.74 20.0723 12.856C20.0363 12.914 19.9893 12.956 19.9313 12.982C19.8753 13.008 19.8073 13.021 19.7273 13.021ZM21.6087 11.887C21.5707 11.885 21.5187 11.88 21.4527 11.872C21.3287 11.86 21.2287 11.854 21.1527 11.854H21.0537V11.446C21.1957 11.446 21.3307 11.456 21.4587 11.476L21.6087 11.503V11.887ZM21.1737 12.535C21.1737 12.505 21.1687 12.486 21.1587 12.478C21.1487 12.47 21.1277 12.464 21.0957 12.46L20.7717 12.415C20.6917 12.403 20.6267 12.384 20.5767 12.358C20.5287 12.332 20.4927 12.297 20.4687 12.253C20.4447 12.215 20.4287 12.169 20.4207 12.115C20.4127 12.061 20.4087 11.994 20.4087 11.914C20.4087 11.75 20.4577 11.63 20.5557 11.554C20.6377 11.494 20.7617 11.459 20.9277 11.449V11.92C20.9277 11.95 20.9317 11.97 20.9397 11.98C20.9477 11.988 20.9727 11.995 21.0147 12.001L21.3747 12.049C21.4267 12.055 21.4717 12.066 21.5097 12.082C21.5477 12.096 21.5797 12.118 21.6057 12.148C21.6637 12.212 21.6927 12.335 21.6927 12.517C21.6927 12.709 21.6437 12.843 21.5457 12.919C21.4597 12.983 21.3357 13.017 21.1737 13.021V12.535ZM21.0477 13.024C20.8877 13.022 20.7477 13.012 20.6277 12.994L20.4567 12.967V12.583C20.5367 12.591 20.6447 12.599 20.7807 12.607C20.8567 12.611 20.9107 12.613 20.9427 12.613H21.0477V13.024Z" fill="#F4F5F7"/>
<path d="M2.568 4.6H4.812C5.364 4.6 5.848 4.704 6.264 4.912C6.688 5.12 7.02 5.4 7.26 5.752C7.5 6.096 7.676 6.476 7.788 6.892C7.908 7.3 7.968 7.732 7.968 8.188C7.968 8.628 7.924 9.064 7.836 9.496C7.748 9.92 7.592 10.348 7.368 10.78C7.144 11.212 6.864 11.588 6.528 11.908C6.2 12.228 5.768 12.492 5.232 12.7C4.704 12.9 4.108 13 3.444 13H1.092L2.568 4.6ZM3.576 12.052C4.056 12.052 4.488 11.972 4.872 11.812C5.264 11.644 5.58 11.432 5.82 11.176C6.068 10.912 6.276 10.608 6.444 10.264C6.612 9.92 6.728 9.58 6.792 9.244C6.864 8.9 6.9 8.552 6.9 8.2C6.9 7.464 6.724 6.84 6.372 6.328C6.02 5.808 5.492 5.548 4.788 5.548H3.432L2.292 12.052H3.576Z" fill="#F49D37"/>
<path d="M8.69072 12.085H8.90072C8.90072 11.973 8.88972 11.901 8.86772 11.869C8.85572 11.851 8.83972 11.84 8.81972 11.836C8.79972 11.83 8.77072 11.827 8.73272 11.827H8.69072V11.446H8.73272C8.90472 11.446 9.03672 11.46 9.12872 11.488C9.22272 11.516 9.29172 11.562 9.33572 11.626C9.37572 11.682 9.39972 11.754 9.40772 11.842C9.41772 11.93 9.42272 12.062 9.42272 12.238V12.358H8.69072V12.085ZM8.79272 13.024C8.60872 13.024 8.46372 13.009 8.35772 12.979C8.25372 12.947 8.17572 12.897 8.12372 12.829C8.07772 12.769 8.04772 12.695 8.03372 12.607C8.01972 12.517 8.01272 12.394 8.01272 12.238C8.01272 12.094 8.01772 11.98 8.02772 11.896C8.03772 11.81 8.05872 11.737 8.09072 11.677C8.12672 11.611 8.18172 11.56 8.25572 11.524C8.33172 11.486 8.43472 11.462 8.56472 11.452V12.358C8.56472 12.426 8.56772 12.475 8.57372 12.505C8.57972 12.533 8.59372 12.554 8.61572 12.568C8.63972 12.584 8.67672 12.593 8.72672 12.595C8.79072 12.599 8.85872 12.601 8.93072 12.601C9.05872 12.601 9.15172 12.598 9.20972 12.592L9.36272 12.58V12.967C9.28272 12.991 9.17272 13.007 9.03272 13.015C8.96472 13.021 8.88472 13.024 8.79272 13.024ZM10.3606 12.085H10.5706C10.5706 11.973 10.5596 11.901 10.5376 11.869C10.5256 11.851 10.5096 11.84 10.4896 11.836C10.4696 11.83 10.4406 11.827 10.4026 11.827H10.3606V11.446H10.4026C10.5746 11.446 10.7066 11.46 10.7986 11.488C10.8926 11.516 10.9616 11.562 11.0056 11.626C11.0456 11.682 11.0696 11.754 11.0776 11.842C11.0876 11.93 11.0926 12.062 11.0926 12.238V12.358H10.3606V12.085ZM10.4626 13.024C10.2786 13.024 10.1336 13.009 10.0276 12.979C9.92364 12.947 9.84564 12.897 9.79364 12.829C9.74764 12.769 9.71764 12.695 9.70364 12.607C9.68964 12.517 9.68264 12.394 9.68264 12.238C9.68264 12.094 9.68764 11.98 9.69764 11.896C9.70764 11.81 9.72864 11.737 9.76064 11.677C9.79664 11.611 9.85164 11.56 9.92564 11.524C10.0016 11.486 10.1046 11.462 10.2346 11.452V12.358C10.2346 12.426 10.2376 12.475 10.2436 12.505C10.2496 12.533 10.2636 12.554 10.2856 12.568C10.3096 12.584 10.3466 12.593 10.3966 12.595C10.4606 12.599 10.5286 12.601 10.6006 12.601C10.7286 12.601 10.8216 12.598 10.8796 12.592L11.0326 12.58V12.967C10.9526 12.991 10.8426 13.007 10.7026 13.015C10.6346 13.021 10.5546 13.024 10.4626 13.024Z" fill="#F4F5F7"/>
<path d="M11.637 15L12.498 10.1H14.283C14.731 10.1 15.0623 10.2237 15.277 10.471C15.4917 10.7137 15.599 11.003 15.599 11.339C15.599 11.7963 15.4497 12.1907 15.151 12.522C14.857 12.8533 14.4253 13.019 13.856 13.019H12.596L12.246 15H11.637ZM13.926 12.487C14.2853 12.487 14.5537 12.375 14.731 12.151C14.913 11.927 15.004 11.6727 15.004 11.388C15.004 11.1873 14.9457 11.0123 14.829 10.863C14.7123 10.709 14.5187 10.632 14.248 10.632H13.009L12.687 12.487H13.926Z" fill="#F49D37"/>
<rect x="8" y="13.2" width="3.1" height="0.4" rx="0.2" fill="#F49D37"/>
<rect x="16" y="13.2" width="5.8" height="0.4" rx="0.2" fill="#F49D37"/>
</svg>
