<svg width="22" height="21" viewBox="0 0 22 21" fill="none" xmlns="http://www.w3.org/2000/svg">
<path d="M21 13.8185C19.1129 14.5391 17.0445 14.7172 15.0517 14.3306C13.0589 13.944 11.2297 13.0097 9.79152 11.6439C8.35332 10.2782 7.3695 8.54111 6.96238 6.64871C6.55526 4.75632 6.74278 2.79202 7.50163 1C5.26694 1.85478 3.41495 3.42114 2.26314 5.43055C1.11134 7.43995 0.73145 9.76727 1.18861 12.0135C1.64577 14.2598 2.91149 16.285 4.76881 17.7422C6.62613 19.1993 8.95936 19.9975 11.3685 20C13.4402 20.0001 15.4645 19.4114 17.181 18.3098C18.8975 17.2081 20.2275 15.644 21 13.8185Z" stroke="black" stroke-width="2" stroke-linecap="round" stroke-linejoin="round"/>
</svg>
